<?xml version="1.0" encoding="UTF-8" standalone="no"?>
<!DOCTYPE svg PUBLIC "-//W3C//DTD SVG 1.1//EN" "http://www.w3.org/Graphics/SVG/1.1/DTD/svg11.dtd">
<svg version="1.1" xmlns="http://www.w3.org/2000/svg" xmlns:xlink="http://www.w3.org/1999/xlink" preserveAspectRatio="xMidYMid meet" viewBox="0 0 640 640" width="640" height="640"><defs><path d="M120 560C120 536 120 522.67 120 520C120 409.54 209.54 320 320 320C320 320 320 320 320 320C430.46 320 520 409.54 520 520C520 522.67 520 536 520 560" id="b1jf4rBj8Z"></path><path d="M440 200C440 133.72 386.28 80 320 80C253.72 80 200 133.72 200 200C200 266.28 253.72 320 320 320C386.28 320 440 266.28 440 200Z" id="dC7lBJZ7x"></path></defs><g><g><g><g><use xlink:href="#b1jf4rBj8Z" opacity="1" fill="#000000" fill-opacity="0"></use><g><use xlink:href="#b1jf4rBj8Z" opacity="1" fill-opacity="0" stroke="#000000" stroke-width="20" stroke-opacity="1"></use></g></g><g><use xlink:href="#dC7lBJZ7x" opacity="1" fill="#000000" fill-opacity="0"></use><g><use xlink:href="#dC7lBJZ7x" opacity="1" fill-opacity="0" stroke="#000000" stroke-width="20" stroke-opacity="1"></use></g></g></g></g></g></svg>